<svg width="64" height="64" viewBox="0 0 64 64" fill="none" xmlns="http://www.w3.org/2000/svg">
  <rect x="22" y="10" width="20" height="26" rx="10" fill="rgba(217,120,45,0.15)" stroke="#D9782D" stroke-width="2"/>
  <rect x="24" y="36" width="16" height="3" rx="1" fill="#D9782D"/>
  <rect x="25" y="39" width="14" height="3" rx="1" fill="rgba(217,120,45,0.7)"/>
  <rect x="26" y="42" width="12" height="3" rx="1" fill="rgba(217,120,45,0.5)"/>
  <rect x="27" y="45" width="10" height="3" rx="1" fill="rgba(217,120,45,0.3)"/>
  <circle cx="32" cy="23" r="4" fill="#D9782D" opacity="0.9"/>
  <circle cx="32" cy="23" r="2" fill="rgba(255,255,255,0.8)"/>
  <line x1="32" y1="7" x2="32" y2="4" stroke="rgba(217,120,45,0.6)" stroke-width="2" stroke-linecap="round"/>
  <line x1="40" y1="10" x2="43" y2="8" stroke="rgba(217,120,45,0.5)" stroke-width="1.5" stroke-linecap="round"/>
  <line x1="24" y1="10" x2="21" y2="8" stroke="rgba(217,120,45,0.5)" stroke-width="1.5" stroke-linecap="round"/>
  <line x1="44" y1="19" x2="47" y2="19" stroke="rgba(217,120,45,0.4)" stroke-width="1.5" stroke-linecap="round"/>
  <line x1="20" y1="19" x2="17" y2="19" stroke="rgba(217,120,45,0.4)" stroke-width="1.5" stroke-linecap="round"/>
  <rect x="28" y="48" width="4" height="3" rx="0.8" fill="#D9782D"/>
  <rect x="32" y="48" width="4" height="3" rx="0.8" fill="#D9782D"/>
</svg>
