<svg width="64" height="64" viewBox="0 0 64 64" fill="none" xmlns="http://www.w3.org/2000/svg">
  <rect x="8" y="10" width="48" height="44" rx="4" fill="rgba(217,120,45,0.1)" stroke="#D9782D" stroke-width="2"/>
  <line x1="16" y1="10" x2="16" y2="54" stroke="rgba(217,120,45,0.35)" stroke-width="1.2"/>
  <line x1="22" y1="10" x2="22" y2="54" stroke="rgba(217,120,45,0.35)" stroke-width="1.2"/>
  <line x1="28" y1="10" x2="28" y2="54" stroke="rgba(217,120,45,0.35)" stroke-width="1.2"/>
  <line x1="34" y1="10" x2="34" y2="54" stroke="rgba(217,120,45,0.35)" stroke-width="1.2"/>
  <line x1="40" y1="10" x2="40" y2="54" stroke="rgba(217,120,45,0.35)" stroke-width="1.2"/>
  <line x1="46" y1="10" x2="46" y2="54" stroke="rgba(217,120,45,0.35)" stroke-width="1.2"/>
  <line x1="8" y1="22" x2="56" y2="22" stroke="rgba(217,120,45,0.25)" stroke-width="1"/>
  <line x1="8" y1="32" x2="56" y2="32" stroke="rgba(217,120,45,0.25)" stroke-width="1"/>
  <line x1="8" y1="42" x2="56" y2="42" stroke="rgba(217,120,45,0.25)" stroke-width="1"/>
  <rect x="8" y="10" width="48" height="5" rx="1" fill="#D9782D" opacity="0.4"/>
  <rect x="8" y="49" width="48" height="5" rx="1" fill="#D9782D" opacity="0.4"/>
  <path d="M20 30 C24 25 30 25 32 32 C34 25 40 25 44 30" stroke="#D9782D" stroke-width="1.5" stroke-linecap="round" fill="none" opacity="0.6"/>
</svg>
